<?xml version="1.0" encoding="UTF-8"?>
<!-- The turnaround at Earth seen from above Earth. (a) Three synodic periods: growth push, apoapsis turn, head-on departure. (b) Fly-and-park: the payload waits above the Van Allen belts between the two waves.
     Not to scale. Each element sits in a named Inkscape layer.
     Generated by todos/trajectory_figures_gen.py (gitignored scratch in the paper repo).
     If that script exists, edit it and rerun it. If not, edit this file by hand.
     Export for the paper with:
       inkscape images/earth_turnaround.svg -o images/earth_turnaround.pdf -->
<svg xmlns="http://www.w3.org/2000/svg"
     xmlns:inkscape="http://www.inkscape.org/namespaces/inkscape"
     xmlns:sodipodi="http://sodipodi.sourceforge.net/DTD/sodipodi-0.dtd"
     width="1000" height="1160" viewBox="0 0 1000 1160">
  <sodipodi:namedview id="namedview" pagecolor="#ffffff" inkscape:document-units="px"/>
  <defs>
    <style>
      text { font-family: 'DejaVu Sans', Arial, sans-serif; font-size: 17px; fill: #222; }
      .small { font-size: 15px; }
      .title { font-size: 19px; font-weight: bold; }
      .leader { stroke: #888; stroke-width: 1.2; fill: none; }
      .orbit { stroke: #B7C0C7; stroke-width: 1.6; fill: none; }
      .num { font-size: 15px; font-weight: bold; fill: #ffffff; text-anchor: middle; }
    </style>
    <marker id="arrowBlue" markerUnits="userSpaceOnUse" markerWidth="14" markerHeight="14" refX="12" refY="7.0" orient="auto">
      <path d="M 0,2.0 L 14,7.0 L 0,12.0 Z" fill="#1F5F8B"/>
    </marker>
    <marker id="arrowOrange" markerUnits="userSpaceOnUse" markerWidth="14" markerHeight="14" refX="12" refY="7.0" orient="auto">
      <path d="M 0,2.0 L 14,7.0 L 0,12.0 Z" fill="#D55E00"/>
    </marker>
    <marker id="arrowGray" markerUnits="userSpaceOnUse" markerWidth="14" markerHeight="14" refX="12" refY="7.0" orient="auto">
      <path d="M 0,2.0 L 14,7.0 L 0,12.0 Z" fill="#6B7780"/>
    </marker>
    <marker id="arrowDark" markerUnits="userSpaceOnUse" markerWidth="14" markerHeight="14" refX="12" refY="7.0" orient="auto">
      <path d="M 0,2.0 L 14,7.0 L 0,12.0 Z" fill="#333"/>
    </marker>
    <marker id="arrowRed" markerUnits="userSpaceOnUse" markerWidth="14" markerHeight="14" refX="12" refY="7.0" orient="auto">
      <path d="M 0,2.0 L 14,7.0 L 0,12.0 Z" fill="#C62828"/>
    </marker>
  </defs>
  <rect id="background" width="1000" height="1160" fill="#ffffff"/>

  <g inkscape:groupmode="layer" id="layer-a-earth" inkscape:label="(a) Earth">
    <text x="30.0" y="40.0" text-anchor="start" class="title">(a) Three synodic periods</text>
    <circle cx="330" cy="250" r="22" fill="#3A7DC9"/>
    <text x="330.0" y="255.0" text-anchor="middle" class="small" style="fill:#ffffff">Earth</text>
  </g>

  <g inkscape:groupmode="layer" id="layer-a-orbits" inkscape:label="(a) Orbits">
    <polyline points="300.0,250.0 300.0,249.1 300.1,248.1 300.2,247.2 300.3,246.2 300.5,245.3 300.7,244.3 301.0,243.4 301.3,242.5 301.7,241.5 302.1,240.6 302.5,239.7 303.0,238.7 303.5,237.8 304.0,236.9 304.6,235.9 305.2,235.0 305.9,234.1 306.6,233.2 307.4,232.3 308.2,231.4 309.0,230.4 309.9,229.5 310.8,228.6 311.7,227.7 312.7,226.8 313.8,226.0 314.8,225.1 315.9,224.2 317.1,223.3 318.3,222.4 319.5,221.6 320.7,220.7 322.0,219.8 323.4,219.0 324.8,218.1 326.2,217.3 327.6,216.5 329.1,215.6 330.6,214.8 332.2,214.0 333.7,213.2 335.4,212.4 337.0,211.6 338.7,210.8 340.4,210.0 342.2,209.2 344.0,208.4 345.8,207.7 347.7,206.9 349.6,206.1 351.5,205.4 353.5,204.7 355.5,203.9 357.5,203.2 359.6,202.5 361.6,201.8 363.8,201.1 365.9,200.4 368.1,199.7 370.3,199.1 372.5,198.4 374.8,197.7 377.1,197.1 379.4,196.5 381.8,195.8 384.1,195.2 386.5,194.6 389.0,194.0 391.4,193.4 393.9,192.8 396.4,192.3 398.9,191.7 401.5,191.2 404.1,190.6 406.7,190.1 409.3,189.6 411.9,189.1 414.6,188.6 417.3,188.1 420.0,187.6 422.7,187.1 425.5,186.7 428.3,186.2 431.0,185.8 433.9,185.4 436.7,185.0 439.5,184.6 442.4,184.2 445.3,183.8 448.2,183.4 451.1,183.1 454.0,182.7 456.9,182.4 459.9,182.1 462.9,181.8 465.8,181.5 468.8,181.2 471.8,180.9 474.9,180.7 477.9,180.4 480.9,180.2 484.0,180.0 487.0,179.7 490.1,179.5 493.2,179.3 496.3,179.2 499.4,179.0 502.5,178.8 505.6,178.7 508.7,178.6 511.8,178.5 514.9,178.4 518.0,178.3 521.2,178.2 524.3,178.1 527.4,178.1 530.6,178.0 533.7,178.0 536.9,178.0 540.0,178.0 543.1,178.0 546.3,178.0 549.4,178.0 552.6,178.1 555.7,178.1 558.8,178.2 562.0,178.3 565.1,178.4 568.2,178.5 571.3,178.6 574.4,178.7 577.5,178.8 580.6,179.0 583.7,179.2 586.8,179.3 589.9,179.5 593.0,179.7 596.0,180.0 599.1,180.2 602.1,180.4 605.1,180.7 608.2,180.9 611.2,181.2 614.2,181.5 617.1,181.8 620.1,182.1 623.1,182.4 626.0,182.7 628.9,183.1 631.8,183.4 634.7,183.8 637.6,184.2 640.5,184.6 643.3,185.0 646.1,185.4 649.0,185.8 651.7,186.2 654.5,186.7 657.3,187.1 660.0,187.6 662.7,188.1 665.4,188.6 668.1,189.1 670.7,189.6 673.3,190.1 675.9,190.6 678.5,191.2 681.1,191.7 683.6,192.3 686.1,192.8 688.6,193.4 691.0,194.0 693.5,194.6 695.9,195.2 698.2,195.8 700.6,196.5 702.9,197.1 705.2,197.7 707.5,198.4 709.7,199.1 711.9,199.7 714.1,200.4 716.2,201.1 718.4,201.8 720.4,202.5 722.5,203.2 724.5,203.9 726.5,204.7 728.5,205.4 730.4,206.1 732.3,206.9 734.2,207.7 736.0,208.4 737.8,209.2 739.6,210.0 741.3,210.8 743.0,211.6 744.6,212.4 746.3,213.2 747.8,214.0 749.4,214.8 750.9,215.6 752.4,216.5 753.8,217.3 755.2,218.1 756.6,219.0 758.0,219.8 759.3,220.7 760.5,221.6 761.7,222.4 762.9,223.3 764.1,224.2 765.2,225.1 766.2,226.0 767.3,226.8 768.3,227.7 769.2,228.6 770.1,229.5 771.0,230.4 771.8,231.4 772.6,232.3 773.4,233.2 774.1,234.1 774.8,235.0 775.4,235.9 776.0,236.9 776.5,237.8 777.0,238.7 777.5,239.7 777.9,240.6 778.3,241.5 778.7,242.5 779.0,243.4 779.3,244.3 779.5,245.3 779.7,246.2 779.8,247.2 779.9,248.1 780.0,249.1 780.0,250.0" fill="none" stroke="#6B7780" stroke-width="2.6" stroke-linejoin="round"/>
    <line x1="536.9" y1="178.0" x2="540.0" y2="178.0" stroke="#6B7780" stroke-width="2.6" marker-end="url(#arrowGray)"/>
    <polyline points="780.0,250.0 780.0,250.9 779.9,251.9 779.8,252.8 779.7,253.8 779.5,254.7 779.3,255.7 779.0,256.6 778.7,257.5 778.3,258.5 777.9,259.4 777.5,260.3 777.0,261.3 776.5,262.2 776.0,263.1 775.4,264.1 774.8,265.0 774.1,265.9 773.4,266.8 772.6,267.7 771.8,268.6 771.0,269.6 770.1,270.5 769.2,271.4 768.3,272.3 767.3,273.2 766.2,274.0 765.2,274.9 764.1,275.8 762.9,276.7 761.7,277.6 760.5,278.4 759.3,279.3 758.0,280.2 756.6,281.0 755.2,281.9 753.8,282.7 752.4,283.5 750.9,284.4 749.4,285.2 747.8,286.0 746.3,286.8 744.6,287.6 743.0,288.4 741.3,289.2 739.6,290.0 737.8,290.8 736.0,291.6 734.2,292.3 732.3,293.1 730.4,293.9 728.5,294.6 726.5,295.3 724.5,296.1 722.5,296.8 720.4,297.5 718.4,298.2 716.2,298.9 714.1,299.6 711.9,300.3 709.7,300.9 707.5,301.6 705.2,302.3 702.9,302.9 700.6,303.5 698.2,304.2 695.9,304.8 693.5,305.4 691.0,306.0 688.6,306.6 686.1,307.2 683.6,307.7 681.1,308.3 678.5,308.8 675.9,309.4 673.3,309.9 670.7,310.4 668.1,310.9 665.4,311.4 662.7,311.9 660.0,312.4 657.3,312.9 654.5,313.3 651.7,313.8 649.0,314.2 646.1,314.6 643.3,315.0 640.5,315.4 637.6,315.8 634.7,316.2 631.8,316.6 628.9,316.9 626.0,317.3 623.1,317.6 620.1,317.9 617.1,318.2 614.2,318.5 611.2,318.8 608.2,319.1 605.1,319.3 602.1,319.6 599.1,319.8 596.0,320.0 593.0,320.3 589.9,320.5 586.8,320.7 583.7,320.8 580.6,321.0 577.5,321.2 574.4,321.3 571.3,321.4 568.2,321.5 565.1,321.6 562.0,321.7 558.8,321.8 555.7,321.9 552.6,321.9 549.4,322.0 546.3,322.0 543.1,322.0 540.0,322.0 536.9,322.0 533.7,322.0 530.6,322.0 527.4,321.9 524.3,321.9 521.2,321.8 518.0,321.7 514.9,321.6 511.8,321.5 508.7,321.4 505.6,321.3 502.5,321.2 499.4,321.0 496.3,320.8 493.2,320.7 490.1,320.5 487.0,320.3 484.0,320.0 480.9,319.8 477.9,319.6 474.9,319.3 471.8,319.1 468.8,318.8 465.8,318.5 462.9,318.2 459.9,317.9 456.9,317.6 454.0,317.3 451.1,316.9 448.2,316.6 445.3,316.2 442.4,315.8 439.5,315.4 436.7,315.0 433.9,314.6 431.0,314.2 428.3,313.8 425.5,313.3 422.7,312.9 420.0,312.4 417.3,311.9 414.6,311.4 411.9,310.9 409.3,310.4 406.7,309.9 404.1,309.4 401.5,308.8 398.9,308.3 396.4,307.7 393.9,307.2 391.4,306.6 389.0,306.0 386.5,305.4 384.1,304.8 381.8,304.2 379.4,303.5 377.1,302.9 374.8,302.3 372.5,301.6 370.3,300.9 368.1,300.3 365.9,299.6 363.8,298.9 361.6,298.2 359.6,297.5 357.5,296.8 355.5,296.1 353.5,295.3 351.5,294.6 349.6,293.9 347.7,293.1 345.8,292.3 344.0,291.6 342.2,290.8 340.4,290.0 338.7,289.2 337.0,288.4 335.4,287.6 333.7,286.8 332.2,286.0 330.6,285.2 329.1,284.4 327.6,283.5 326.2,282.7 324.8,281.9 323.4,281.0 322.0,280.2 320.7,279.3 319.5,278.4 318.3,277.6 317.1,276.7 315.9,275.8 314.8,274.9 313.8,274.0 312.7,273.2 311.7,272.3 310.8,271.4 309.9,270.5 309.0,269.6 308.2,268.6 307.4,267.7 306.6,266.8 305.9,265.9 305.2,265.0 304.6,264.1 304.0,263.1 303.5,262.2 303.0,261.3 302.5,260.3 302.1,259.4 301.7,258.5 301.3,257.5 301.0,256.6 300.7,255.7 300.5,254.7 300.3,253.8 300.2,252.8 300.1,251.9 300.0,250.9 300.0,250.0" fill="none" stroke="#C9D0D6" stroke-width="1.4" stroke-dasharray="3 5" stroke-linejoin="round"/>
    <polyline points="780.0,250.0 780.0,249.2 779.9,248.5 779.8,247.7 779.7,247.0 779.5,246.2 779.3,245.5 779.0,244.7 778.7,244.0 778.3,243.2 777.9,242.5 777.5,241.7 777.0,241.0 776.5,240.2 775.9,239.5 775.3,238.7 774.7,238.0 774.0,237.3 773.3,236.5 772.5,235.8 771.7,235.1 770.9,234.3 770.0,233.6 769.1,232.9 768.1,232.2 767.1,231.4 766.1,230.7 765.0,230.0 763.9,229.3 762.7,228.6 761.5,227.9 760.3,227.2 759.0,226.5 757.7,225.8 756.4,225.1 755.0,224.5 753.6,223.8 752.1,223.1 750.6,222.5 749.1,221.8 747.5,221.1 745.9,220.5 744.3,219.8 742.6,219.2 740.9,218.6 739.1,217.9 737.4,217.3 735.5,216.7 733.7,216.1 731.8,215.5 729.9,214.9 727.9,214.3 726.0,213.7 723.9,213.1 721.9,212.5 719.8,211.9 717.7,211.4 715.6,210.8 713.4,210.3 711.2,209.7 709.0,209.2 706.7,208.6 704.4,208.1 702.1,207.6 699.8,207.1 697.4,206.6 695.0,206.1 692.6,205.6 690.1,205.1 687.6,204.7 685.1,204.2 682.6,203.7 680.0,203.3 677.5,202.9 674.9,202.4 672.2,202.0 669.6,201.6 666.9,201.2 664.2,200.8 661.5,200.4 658.8,200.0 656.0,199.6 653.2,199.3 650.4,198.9 647.6,198.6 644.8,198.2 641.9,197.9 639.0,197.6 636.1,197.3 633.2,197.0 630.3,196.7 627.4,196.4 624.4,196.1 621.4,195.8 618.4,195.6 615.4,195.3 612.4,195.1 609.4,194.9 606.4,194.6 603.3,194.4 600.3,194.2 597.2,194.0 594.1,193.9 591.0,193.7 587.9,193.5 584.8,193.4 581.7,193.2 578.6,193.1 575.4,193.0 572.3,192.9 569.2,192.8 566.0,192.7 562.8,192.6 559.7,192.5 556.5,192.4 553.4,192.4 550.2,192.3 547.0,192.3 543.8,192.3 540.7,192.3 537.5,192.3 534.3,192.3 531.2,192.3 528.0,192.3 524.8,192.3 521.6,192.4 518.5,192.4 515.3,192.5 512.2,192.6 509.0,192.7 505.8,192.8 502.7,192.9 499.6,193.0 496.4,193.1 493.3,193.2 490.2,193.4 487.1,193.5 484.0,193.7 480.9,193.9 477.8,194.0 474.7,194.2 471.7,194.4 468.6,194.6 465.6,194.9 462.6,195.1 459.6,195.3 456.6,195.6 453.6,195.8 450.6,196.1 447.6,196.4 444.7,196.7 441.8,197.0 438.9,197.3 436.0,197.6 433.1,197.9 430.2,198.2 427.4,198.6 424.6,198.9 421.8,199.3 419.0,199.6 416.2,200.0 413.5,200.4 410.8,200.8 408.1,201.2 405.4,201.6 402.8,202.0 400.1,202.4 397.5,202.9 395.0,203.3 392.4,203.7 389.9,204.2 387.4,204.7 384.9,205.1 382.4,205.6 380.0,206.1 377.6,206.6 375.2,207.1 372.9,207.6 370.6,208.1 368.3,208.6 366.0,209.2 363.8,209.7 361.6,210.3 359.4,210.8 357.3,211.4 355.2,211.9 353.1,212.5 351.1,213.1 349.0,213.7 347.1,214.3 345.1,214.9 343.2,215.5 341.3,216.1 339.5,216.7 337.6,217.3 335.9,217.9 334.1,218.6 332.4,219.2 330.7,219.8 329.1,220.5 327.5,221.1 325.9,221.8 324.4,222.5 322.9,223.1 321.4,223.8 320.0,224.5 318.6,225.1 317.3,225.8 316.0,226.5 314.7,227.2 313.5,227.9 312.3,228.6 311.1,229.3 310.0,230.0 308.9,230.7 307.9,231.4 306.9,232.2 305.9,232.9 305.0,233.6 304.1,234.3 303.3,235.1 302.5,235.8 301.7,236.5 301.0,237.3 300.3,238.0 299.7,238.7 299.1,239.5 298.5,240.2 298.0,241.0 297.5,241.7 297.1,242.5 296.7,243.2 296.3,244.0 296.0,244.7 295.7,245.5 295.5,246.2 295.3,247.0 295.2,247.7 295.1,248.5 295.0,249.2 295.0,250.0" fill="none" stroke="#333" stroke-width="2.6" stroke-dasharray="10 6" stroke-linejoin="round"/>
    <line x1="615.4" y1="195.3" x2="612.4" y2="195.1" stroke="#333" stroke-width="2.6" marker-end="url(#arrowDark)"/>
  </g>

  <g inkscape:groupmode="layer" id="layer-a-steps" inkscape:label="(a) Steps">
    <line x1="280.0" y1="324.0" x2="280.0" y2="254.0" stroke="#C62828" stroke-width="2.4" marker-end="url(#arrowRed)"/>
    <circle cx="280.0" cy="324.0" r="4.5" fill="#C62828"/>
    <line x1="266.0" y1="342.0" x2="266.0" y2="272.0" stroke="#C62828" stroke-width="2.4" marker-end="url(#arrowRed)"/>
    <circle cx="266.0" cy="342.0" r="4.5" fill="#C62828"/>
    <line x1="294.0" y1="342.0" x2="294.0" y2="272.0" stroke="#C62828" stroke-width="2.4" marker-end="url(#arrowRed)"/>
    <circle cx="294.0" cy="342.0" r="4.5" fill="#C62828"/>
    <circle cx="236.0" cy="300.0" r="12" fill="#333"/>
    <text x="236.0" y="305.5" class="num">1</text>
    <text x="216.0" y="306.0" text-anchor="end" class="small"><tspan x="216.0" dy="0em">Growth wave pushes the</tspan><tspan x="216.0" dy="1.2em">payload along its travel</tspan><tspan x="216.0" dy="1.2em">at 400 km periapsis.</tspan></text>
    <circle cx="780" cy="250" r="6" fill="#333"/>
    <circle cx="810.0" cy="250.0" r="12" fill="#333"/>
    <text x="810.0" y="255.5" class="num">2</text>
    <text x="832.0" y="130.0" text-anchor="start" class="small"><tspan x="832.0" dy="0em">Apoapsis,</tspan><tspan x="832.0" dy="1.2em">613,000 km,</tspan><tspan x="832.0" dy="1.2em">about 0.12 km/s.</tspan><tspan x="832.0" dy="1.2em">Turn burn,</tspan><tspan x="832.0" dy="1.2em">about 6% of</tspan><tspan x="832.0" dy="1.2em">departing mass,</tspan><tspan x="832.0" dy="1.2em">raises periapsis</tspan><tspan x="832.0" dy="1.2em">to 600 km.</tspan></text>
    <text x="480.0" y="158.0" text-anchor="start" class="small" style="fill:#5E6A73">orbit after the growth push</text>
    <text x="480.0" y="224.0" text-anchor="start" class="small" style="fill:#333">turned orbit, flown backward</text>
    <circle cx="276.0" cy="206.0" r="12" fill="#333"/>
    <text x="276.0" y="211.5" class="num">3</text>
    <text x="256.0" y="192.0" text-anchor="end" class="small"><tspan x="256.0" dy="0em">Departure wave arrives</tspan><tspan x="256.0" dy="1.2em">one orbit later and</tspan><tspan x="256.0" dy="1.2em">meets it at 600 km.</tspan></text>
    <rect x="40" y="350" width="250" height="210" rx="8" fill="#F7F8FA" stroke="#CCD3D9"/>
    <text x="54.0" y="376.0" text-anchor="start" class="small" font-weight="bold">At 3, the payload's frame</text>
    <line x1="150" y1="460" x2="150" y2="540" stroke="#1F5F8B" stroke-width="3.2" marker-end="url(#arrowBlue)"/>
    <text x="160.0" y="536.0" text-anchor="start" class="small" style="fill:#1F5F8B"><tspan x="160.0" dy="0em">thrust, along</tspan><tspan x="160.0" dy="1.2em">the payload's travel</tspan></text>
    <line x1="150.0" y1="460.0" x2="189.5" y2="390.4" stroke="#C62828" stroke-width="3" marker-end="url(#arrowRed)"/>
    <text x="197.5" y="398.4" text-anchor="start" class="small" style="fill:#C62828">PuffSats</text>
    <path d="M 150.0,494.0 A 34,34 0 0 0 166.8,430.4" fill="none" stroke="#333" stroke-width="1.5"/>
    <text x="190.0" y="466.0" text-anchor="start" class="small" font-weight="bold">150.4°</text>
    <text x="134.0" y="412.0" text-anchor="end" class="small" style="fill:#5E6A73"><tspan x="134.0" dy="0em">180° is</tspan><tspan x="134.0" dy="1.2em">head-on</tspan></text>
    <path d="M 300.0,258.0 C 296.0,340.0 340.0,400.0 450.0,450.0" fill="none" stroke="#1F5F8B" stroke-width="3.2" marker-end="url(#arrowBlue)"/>
    <circle cx="480.0" cy="456.0" r="12" fill="#1F5F8B"/>
    <text x="480.0" y="461.5" class="num">4</text>
    <text x="500.0" y="452.0" text-anchor="start" class="small" style="fill:#1F5F8B"><tspan x="500.0" dy="0em">Departure burn sends it toward Jupiter.</tspan><tspan x="500.0" dy="1.2em">5.32 to 5.54 km/s at the 200 km reference,</tspan><tspan x="500.0" dy="1.2em">plus 107 to 110 m/s at 600 km.</tspan></text>
  </g>

  <g inkscape:groupmode="layer" id="layer-b-earth" inkscape:label="(b) Earth and belts">
    <line x1="20" y1="620" x2="980" y2="620" stroke="#DDD" stroke-width="1.5"/>
    <text x="30.0" y="660.0" text-anchor="start" class="title">(b) Fly-and-park</text>
    <circle cx="330" cy="930" r="105.0" fill="#E9C46A" fill-opacity="0.32"/>
    <circle cx="330" cy="930" r="60.9" fill="#ffffff"/>
    <circle cx="330" cy="930" r="48.3" fill="#E9C46A" fill-opacity="0.32"/>
    <circle cx="330" cy="930" r="27.3" fill="#ffffff"/>
    <circle cx="330" cy="930" r="21" fill="#3A7DC9"/>
    <text x="330.0" y="935.0" text-anchor="middle" class="small" style="fill:#ffffff">Earth</text>
    <text x="270.0" y="1095.0" text-anchor="end" class="small" style="fill:#8A6D12">Van Allen belts</text>
    <path d="M 272,1085.0 L 300,1023.0" class="leader"/>
  </g>

  <g inkscape:groupmode="layer" id="layer-b-orbits" inkscape:label="(b) Orbits">
    <polyline points="300.0,930.0 300.0,929.1 300.1,928.1 300.2,927.2 300.3,926.2 300.5,925.3 300.7,924.3 301.0,923.4 301.3,922.5 301.7,921.5 302.1,920.6 302.5,919.7 303.0,918.7 303.5,917.8 304.0,916.9 304.6,915.9 305.2,915.0 305.9,914.1 306.6,913.2 307.4,912.3 308.2,911.4 309.0,910.4 309.9,909.5 310.8,908.6 311.7,907.7 312.7,906.8 313.8,906.0 314.8,905.1 315.9,904.2 317.1,903.3 318.3,902.4 319.5,901.6 320.7,900.7 322.0,899.8 323.4,899.0 324.8,898.1 326.2,897.3 327.6,896.5 329.1,895.6 330.6,894.8 332.2,894.0 333.7,893.2 335.4,892.4 337.0,891.6 338.7,890.8 340.4,890.0 342.2,889.2 344.0,888.4 345.8,887.7 347.7,886.9 349.6,886.1 351.5,885.4 353.5,884.7 355.5,883.9 357.5,883.2 359.6,882.5 361.6,881.8 363.8,881.1 365.9,880.4 368.1,879.7 370.3,879.1 372.5,878.4 374.8,877.7 377.1,877.1 379.4,876.5 381.8,875.8 384.1,875.2 386.5,874.6 389.0,874.0 391.4,873.4 393.9,872.8 396.4,872.3 398.9,871.7 401.5,871.2 404.1,870.6 406.7,870.1 409.3,869.6 411.9,869.1 414.6,868.6 417.3,868.1 420.0,867.6 422.7,867.1 425.5,866.7 428.3,866.2 431.0,865.8 433.9,865.4 436.7,865.0 439.5,864.6 442.4,864.2 445.3,863.8 448.2,863.4 451.1,863.1 454.0,862.7 456.9,862.4 459.9,862.1 462.9,861.8 465.8,861.5 468.8,861.2 471.8,860.9 474.9,860.7 477.9,860.4 480.9,860.2 484.0,860.0 487.0,859.7 490.1,859.5 493.2,859.3 496.3,859.2 499.4,859.0 502.5,858.8 505.6,858.7 508.7,858.6 511.8,858.5 514.9,858.4 518.0,858.3 521.2,858.2 524.3,858.1 527.4,858.1 530.6,858.0 533.7,858.0 536.9,858.0 540.0,858.0 543.1,858.0 546.3,858.0 549.4,858.0 552.6,858.1 555.7,858.1 558.8,858.2 562.0,858.3 565.1,858.4 568.2,858.5 571.3,858.6 574.4,858.7 577.5,858.8 580.6,859.0 583.7,859.2 586.8,859.3 589.9,859.5 593.0,859.7 596.0,860.0 599.1,860.2 602.1,860.4 605.1,860.7 608.2,860.9 611.2,861.2 614.2,861.5 617.1,861.8 620.1,862.1 623.1,862.4 626.0,862.7 628.9,863.1 631.8,863.4 634.7,863.8 637.6,864.2 640.5,864.6 643.3,865.0 646.1,865.4 649.0,865.8 651.7,866.2 654.5,866.7 657.3,867.1 660.0,867.6 662.7,868.1 665.4,868.6 668.1,869.1 670.7,869.6 673.3,870.1 675.9,870.6 678.5,871.2 681.1,871.7 683.6,872.3 686.1,872.8 688.6,873.4 691.0,874.0 693.5,874.6 695.9,875.2 698.2,875.8 700.6,876.5 702.9,877.1 705.2,877.7 707.5,878.4 709.7,879.1 711.9,879.7 714.1,880.4 716.2,881.1 718.4,881.8 720.4,882.5 722.5,883.2 724.5,883.9 726.5,884.7 728.5,885.4 730.4,886.1 732.3,886.9 734.2,887.7 736.0,888.4 737.8,889.2 739.6,890.0 741.3,890.8 743.0,891.6 744.6,892.4 746.3,893.2 747.8,894.0 749.4,894.8 750.9,895.6 752.4,896.5 753.8,897.3 755.2,898.1 756.6,899.0 758.0,899.8 759.3,900.7 760.5,901.6 761.7,902.4 762.9,903.3 764.1,904.2 765.2,905.1 766.2,906.0 767.3,906.8 768.3,907.7 769.2,908.6 770.1,909.5 771.0,910.4 771.8,911.4 772.6,912.3 773.4,913.2 774.1,914.1 774.8,915.0 775.4,915.9 776.0,916.9 776.5,917.8 777.0,918.7 777.5,919.7 777.9,920.6 778.3,921.5 778.7,922.5 779.0,923.4 779.3,924.3 779.5,925.3 779.7,926.2 779.8,927.2 779.9,928.1 780.0,929.1 780.0,930.0" fill="none" stroke="#6B7780" stroke-width="2.2" stroke-linejoin="round"/>
    <line x1="536.9" y1="858.0" x2="540.0" y2="858.0" stroke="#6B7780" stroke-width="2.2" marker-end="url(#arrowGray)"/>
    <polyline points="201.0,930.0 201.1,925.8 201.4,921.7 201.9,917.5 202.6,913.4 203.5,909.2 204.6,905.1 205.8,901.0 207.3,896.9 209.0,892.9 210.9,888.8 212.9,884.8 215.2,880.9 217.6,876.9 220.2,873.0 223.0,869.1 226.0,865.3 229.2,861.5 232.6,857.8 236.1,854.1 239.8,850.5 243.7,846.9 247.7,843.4 251.9,839.9 256.3,836.5 260.8,833.2 265.5,829.9 270.4,826.7 275.4,823.6 280.5,820.5 285.8,817.6 291.2,814.7 296.8,811.8 302.5,809.1 308.3,806.4 314.3,803.8 320.3,801.4 326.5,798.9 332.8,796.6 339.2,794.4 345.8,792.3 352.4,790.3 359.1,788.3 365.9,786.5 372.7,784.7 379.7,783.1 386.8,781.5 393.9,780.1 401.0,778.8 408.3,777.5 415.6,776.4 422.9,775.4 430.3,774.5 437.7,773.6 445.2,772.9 452.7,772.3 460.2,771.9 467.8,771.5 475.3,771.2 482.9,771.0 490.5,771.0 498.1,771.0 505.7,771.2 513.2,771.5 520.8,771.9 528.3,772.3 535.8,772.9 543.3,773.6 550.7,774.5 558.1,775.4 565.4,776.4 572.7,777.5 580.0,778.8 587.1,780.1 594.2,781.5 601.3,783.1 608.3,784.7 615.1,786.5 621.9,788.3 628.6,790.3 635.2,792.3 641.8,794.4 648.2,796.6 654.5,798.9 660.7,801.4 666.7,803.8 672.7,806.4 678.5,809.1 684.2,811.8 689.8,814.7 695.2,817.6 700.5,820.5 705.6,823.6 710.6,826.7 715.5,829.9 720.2,833.2 724.7,836.5 729.1,839.9 733.3,843.4 737.3,846.9 741.2,850.5 744.9,854.1 748.4,857.8 751.8,861.5 755.0,865.3 758.0,869.1 760.8,873.0 763.4,876.9 765.8,880.9 768.1,884.8 770.1,888.8 772.0,892.9 773.7,896.9 775.2,901.0 776.4,905.1 777.5,909.2 778.4,913.4 779.1,917.5 779.6,921.7 779.9,925.8 780.0,930.0 779.9,934.2 779.6,938.3 779.1,942.5 778.4,946.6 777.5,950.8 776.4,954.9 775.2,959.0 773.7,963.1 772.0,967.1 770.1,971.2 768.1,975.2 765.8,979.1 763.4,983.1 760.8,987.0 758.0,990.9 755.0,994.7 751.8,998.5 748.4,1002.2 744.9,1005.9 741.2,1009.5 737.3,1013.1 733.3,1016.6 729.1,1020.1 724.7,1023.5 720.2,1026.8 715.5,1030.1 710.6,1033.3 705.6,1036.4 700.5,1039.5 695.2,1042.4 689.8,1045.3 684.2,1048.2 678.5,1050.9 672.7,1053.6 666.7,1056.2 660.7,1058.6 654.5,1061.1 648.2,1063.4 641.8,1065.6 635.3,1067.7 628.6,1069.7 621.9,1071.7 615.1,1073.5 608.3,1075.3 601.3,1076.9 594.2,1078.5 587.1,1079.9 580.0,1081.2 572.7,1082.5 565.4,1083.6 558.1,1084.6 550.7,1085.5 543.3,1086.4 535.8,1087.1 528.3,1087.7 520.8,1088.1 513.2,1088.5 505.7,1088.8 498.1,1089.0 490.5,1089.0 482.9,1089.0 475.3,1088.8 467.8,1088.5 460.2,1088.1 452.7,1087.7 445.2,1087.1 437.7,1086.4 430.3,1085.5 422.9,1084.6 415.6,1083.6 408.3,1082.5 401.0,1081.2 393.9,1079.9 386.8,1078.5 379.7,1076.9 372.7,1075.3 365.9,1073.5 359.1,1071.7 352.4,1069.7 345.8,1067.7 339.2,1065.6 332.8,1063.4 326.5,1061.1 320.3,1058.6 314.3,1056.2 308.3,1053.6 302.5,1050.9 296.8,1048.2 291.2,1045.3 285.8,1042.4 280.5,1039.5 275.4,1036.4 270.4,1033.3 265.5,1030.1 260.8,1026.8 256.3,1023.5 251.9,1020.1 247.7,1016.6 243.7,1013.1 239.8,1009.5 236.1,1005.9 232.6,1002.2 229.2,998.5 226.0,994.7 223.0,990.9 220.2,987.0 217.6,983.1 215.2,979.1 212.9,975.2 210.9,971.2 209.0,967.1 207.3,963.1 205.8,959.0 204.6,954.9 203.5,950.8 202.6,946.6 201.9,942.5 201.4,938.3 201.1,934.2 201.0,930.0" fill="none" stroke="#2E7D32" stroke-width="2.8" stroke-linejoin="round"/>
    <line x1="550.7" y1="1085.5" x2="543.3" y2="1086.4" stroke="#2E7D32" stroke-width="2.8" marker-end="url(#arrowDark)"/>
    <polyline points="780.0,930.0 780.0,929.2 779.9,928.5 779.8,927.7 779.7,927.0 779.5,926.2 779.3,925.5 779.0,924.7 778.7,924.0 778.3,923.2 777.9,922.5 777.5,921.7 777.0,921.0 776.5,920.2 775.9,919.5 775.3,918.7 774.7,918.0 774.0,917.3 773.3,916.5 772.5,915.8 771.7,915.1 770.9,914.3 770.0,913.6 769.1,912.9 768.1,912.2 767.1,911.4 766.1,910.7 765.0,910.0 763.9,909.3 762.7,908.6 761.5,907.9 760.3,907.2 759.0,906.5 757.7,905.8 756.4,905.1 755.0,904.5 753.6,903.8 752.1,903.1 750.6,902.5 749.1,901.8 747.5,901.1 745.9,900.5 744.3,899.8 742.6,899.2 740.9,898.6 739.1,897.9 737.4,897.3 735.5,896.7 733.7,896.1 731.8,895.5 729.9,894.9 727.9,894.3 726.0,893.7 723.9,893.1 721.9,892.5 719.8,891.9 717.7,891.4 715.6,890.8 713.4,890.3 711.2,889.7 709.0,889.2 706.7,888.6 704.4,888.1 702.1,887.6 699.8,887.1 697.4,886.6 695.0,886.1 692.6,885.6 690.1,885.1 687.6,884.7 685.1,884.2 682.6,883.7 680.0,883.3 677.5,882.9 674.9,882.4 672.2,882.0 669.6,881.6 666.9,881.2 664.2,880.8 661.5,880.4 658.8,880.0 656.0,879.6 653.2,879.3 650.4,878.9 647.6,878.6 644.8,878.2 641.9,877.9 639.0,877.6 636.1,877.3 633.2,877.0 630.3,876.7 627.4,876.4 624.4,876.1 621.4,875.8 618.4,875.6 615.4,875.3 612.4,875.1 609.4,874.9 606.4,874.6 603.3,874.4 600.3,874.2 597.2,874.0 594.1,873.9 591.0,873.7 587.9,873.5 584.8,873.4 581.7,873.2 578.6,873.1 575.4,873.0 572.3,872.9 569.2,872.8 566.0,872.7 562.8,872.6 559.7,872.5 556.5,872.4 553.4,872.4 550.2,872.3 547.0,872.3 543.8,872.3 540.7,872.3 537.5,872.3 534.3,872.3 531.2,872.3 528.0,872.3 524.8,872.3 521.6,872.4 518.5,872.4 515.3,872.5 512.2,872.6 509.0,872.7 505.8,872.8 502.7,872.9 499.6,873.0 496.4,873.1 493.3,873.2 490.2,873.4 487.1,873.5 484.0,873.7 480.9,873.9 477.8,874.0 474.7,874.2 471.7,874.4 468.6,874.6 465.6,874.9 462.6,875.1 459.6,875.3 456.6,875.6 453.6,875.8 450.6,876.1 447.6,876.4 444.7,876.7 441.8,877.0 438.9,877.3 436.0,877.6 433.1,877.9 430.2,878.2 427.4,878.6 424.6,878.9 421.8,879.3 419.0,879.6 416.2,880.0 413.5,880.4 410.8,880.8 408.1,881.2 405.4,881.6 402.8,882.0 400.1,882.4 397.5,882.9 395.0,883.3 392.4,883.7 389.9,884.2 387.4,884.7 384.9,885.1 382.4,885.6 380.0,886.1 377.6,886.6 375.2,887.1 372.9,887.6 370.6,888.1 368.3,888.6 366.0,889.2 363.8,889.7 361.6,890.3 359.4,890.8 357.3,891.4 355.2,891.9 353.1,892.5 351.1,893.1 349.0,893.7 347.1,894.3 345.1,894.9 343.2,895.5 341.3,896.1 339.5,896.7 337.6,897.3 335.9,897.9 334.1,898.6 332.4,899.2 330.7,899.8 329.1,900.5 327.5,901.1 325.9,901.8 324.4,902.5 322.9,903.1 321.4,903.8 320.0,904.5 318.6,905.1 317.3,905.8 316.0,906.5 314.7,907.2 313.5,907.9 312.3,908.6 311.1,909.3 310.0,910.0 308.9,910.7 307.9,911.4 306.9,912.2 305.9,912.9 305.0,913.6 304.1,914.3 303.3,915.1 302.5,915.8 301.7,916.5 301.0,917.3 300.3,918.0 299.7,918.7 299.1,919.5 298.5,920.2 298.0,921.0 297.5,921.7 297.1,922.5 296.7,923.2 296.3,924.0 296.0,924.7 295.7,925.5 295.5,926.2 295.3,927.0 295.2,927.7 295.1,928.5 295.0,929.2 295.0,930.0" fill="none" stroke="#333" stroke-width="2.6" stroke-dasharray="10 6" stroke-linejoin="round"/>
    <line x1="615.4" y1="875.3" x2="612.4" y2="875.1" stroke="#333" stroke-width="2.6" marker-end="url(#arrowDark)"/>
  </g>

  <g inkscape:groupmode="layer" id="layer-b-steps" inkscape:label="(b) Steps">
    <line x1="280.0" y1="1004.0" x2="280.0" y2="934.0" stroke="#C62828" stroke-width="2.4" marker-end="url(#arrowRed)"/>
    <circle cx="280.0" cy="1004.0" r="4.5" fill="#C62828"/>
    <line x1="266.0" y1="1022.0" x2="266.0" y2="952.0" stroke="#C62828" stroke-width="2.4" marker-end="url(#arrowRed)"/>
    <circle cx="266.0" cy="1022.0" r="4.5" fill="#C62828"/>
    <line x1="294.0" y1="1022.0" x2="294.0" y2="952.0" stroke="#C62828" stroke-width="2.4" marker-end="url(#arrowRed)"/>
    <circle cx="294.0" cy="1022.0" r="4.5" fill="#C62828"/>
    <circle cx="150.0" cy="990.0" r="12" fill="#333"/>
    <text x="150.0" y="995.5" class="num">1</text>
    <text x="130.0" y="996.0" text-anchor="end" class="small"><tspan x="130.0" dy="0em">Same growth</tspan><tspan x="130.0" dy="1.2em">push, months</tspan><tspan x="130.0" dy="1.2em">early</tspan></text>
    <path d="M 162,990 L 270,980" class="leader"/>
    <circle cx="780" cy="930" r="6" fill="#333"/>
    <circle cx="810.0" cy="890.0" r="12" fill="#333"/>
    <text x="810.0" y="895.5" class="num">2</text>
    <text x="832.0" y="780.0" text-anchor="start" class="small"><tspan x="832.0" dy="0em">Apoapsis burn</tspan><tspan x="832.0" dy="1.2em">raises periapsis</tspan><tspan x="832.0" dy="1.2em">to about 60,000 km,</tspan><tspan x="832.0" dy="1.2em">above the outer</tspan><tspan x="832.0" dy="1.2em">belt. 0.22 km/s.</tspan></text>
    <circle cx="480.0" cy="1118.0" r="12" fill="#2E7D32"/>
    <text x="480.0" y="1123.5" class="num">3</text>
    <text x="502.0" y="1124.0" text-anchor="start" class="small" style="fill:#2E7D32">Parked above the belts, possibly for months</text>
    <circle cx="810.0" cy="970.0" r="12" fill="#333"/>
    <text x="810.0" y="975.5" class="num">4</text>
    <text x="832.0" y="1000.0" text-anchor="start" class="small"><tspan x="832.0" dy="0em">Second apoapsis</tspan><tspan x="832.0" dy="1.2em">burn lowers</tspan><tspan x="832.0" dy="1.2em">periapsis to 600 km</tspan><tspan x="832.0" dy="1.2em">and turns the orbit</tspan><tspan x="832.0" dy="1.2em">to face the PuffSats.</tspan><tspan x="832.0" dy="1.2em">0.22 to 0.46 km/s.</tspan></text>
    <circle cx="150.0" cy="860.0" r="12" fill="#333"/>
    <text x="150.0" y="865.5" class="num">5</text>
    <text x="130.0" y="840.0" text-anchor="end" class="small"><tspan x="130.0" dy="0em">Departure</tspan><tspan x="130.0" dy="1.2em">wave meets</tspan><tspan x="130.0" dy="1.2em">it as in (a).</tspan></text>
    <path d="M 162,864 L 296,924" class="leader"/>
  </g>
</svg>
