<?xml version="1.0" encoding="UTF-8"?>
<!-- Tether swing and how it is handled. Generated by todos/make_tether_swing_svg.py; edit there.
     Not to scale. Export for the paper with:
       inkscape images/tether_swing.svg -o images/tether_swing.pdf -->
<svg xmlns="http://www.w3.org/2000/svg" width="1000" height="720" viewBox="0 0 1000 720">
  <defs>
    <style>
      text { font-family: 'DejaVu Sans', Arial, sans-serif; font-size: 17px; fill: #222; }
      .small { font-size: 15px; } .tiny { font-size: 13px; }
      .title { font-size: 19px; font-weight: bold; }
      .kevlar { stroke: #555; stroke-width: 1.3; fill: none; }
      .leader { stroke: #888; stroke-width: 1.2; fill: none; }
    </style>
    <marker id="arrowDark" markerUnits="userSpaceOnUse" markerWidth="14" markerHeight="14" refX="12" refY="7" orient="auto">
      <path d="M 0,2 L 14,7 L 0,12 Z" fill="#333"/></marker>
    <marker id="arrowPlume" markerUnits="userSpaceOnUse" markerWidth="12" markerHeight="12" refX="10" refY="6" orient="auto">
      <path d="M 0,1 L 11,6 L 0,11" fill="none" stroke="#8A6D12" stroke-width="1.8"/></marker>
  </defs>
  <text x="20" y="30" class="title">(a) Rod on three lines: swing, damping, dead reckoning</text>
<rect x="195" y="283" width="110" height="14" fill="none" stroke="#999" stroke-dasharray="4 3"/>
<rect x="195" y="265" width="110" height="14" rx="3" fill="#B8C2CA" stroke="#2F3B45" stroke-width="1.4"/>
<path d="M 242,290 L 258,290 M 250,282 L 250,298" stroke="#C62828" stroke-width="2"/>
<text x="312" y="312" class="tiny" style="fill:#C62828">centre of the package circle</text>
<text x="183" y="270" class="tiny" text-anchor="end">rod, displaced</text>
<text x="183" y="286" class="tiny" text-anchor="end">by the swing</text>
<line x1="250" y1="90" x2="195" y2="272" class="kevlar"/>
<rect x="194.8" y="252.0" width="10" height="8" fill="#7B4FA0"/>
<line x1="250" y1="90" x2="305" y2="272" class="kevlar"/>
<rect x="295.2" y="252.0" width="10" height="8" fill="#7B4FA0"/>
<rect x="229.5" y="135.6" width="41.0" height="18" rx="3" fill="#2F3B45"/>
<line x1="250" y1="135.6" x2="264" y2="124.6" stroke="#2F3B45" stroke-width="2"/>
<circle cx="250" cy="90" r="12" fill="#C9A227" stroke="#8A6D12" stroke-width="1.2"/>
<line x1="238" y1="88" x2="198" y2="64" stroke="#8A6D12" stroke-width="1.8" stroke-dasharray="3 3" marker-end="url(#arrowPlume)"/>
<line x1="262" y1="88" x2="302" y2="64" stroke="#8A6D12" stroke-width="1.8" stroke-dasharray="3 3" marker-end="url(#arrowPlume)"/>
<text x="272" y="82" class="small">propane tank and thrusters at the tip,</text>
<text x="272" y="100" class="small">plumes canted away from the lines</text>
<text x="296" y="149.6" class="small">electronics, cells, GNSS, a few meters inboard</text>
<line x1="250" y1="490" x2="195" y2="272" class="kevlar"/>
<rect x="194.0" y="284.0" width="10" height="8" fill="#7B4FA0"/>
<line x1="250" y1="490" x2="305" y2="272" class="kevlar"/>
<rect x="296.0" y="284.0" width="10" height="8" fill="#7B4FA0"/>
<rect x="229.5" y="415.6" width="41.0" height="18" rx="3" fill="#2F3B45"/>
<line x1="250" y1="433.6" x2="264" y2="444.6" stroke="#2F3B45" stroke-width="2"/>
<circle cx="250" cy="490" r="12" fill="#C9A227" stroke="#8A6D12" stroke-width="1.2"/>
<line x1="238" y1="492" x2="198" y2="516" stroke="#8A6D12" stroke-width="1.8" stroke-dasharray="3 3" marker-end="url(#arrowPlume)"/>
<line x1="262" y1="492" x2="302" y2="516" stroke="#8A6D12" stroke-width="1.8" stroke-dasharray="3 3" marker-end="url(#arrowPlume)"/>
<text x="20" y="200" class="small" style="fill:#7B4FA0">viscoelastic links</text>
<text x="20" y="218" class="small" style="fill:#7B4FA0">at the rod ends</text>
<line x1="140" y1="220" x2="197" y2="252" class="leader"/>
<text x="20" y="410" class="tiny" style="fill:#555">third package out of the page</text>
<line x1="315" y1="272" x2="475" y2="272" stroke="#1F5F8B" stroke-width="2" stroke-dasharray="7 4" marker-end="url(#arrowDark)"/>
<text x="485" y="268" class="small" style="fill:#1F5F8B">dead-reckoned rod path,</text>
<text x="485" y="286" class="small" style="fill:#1F5F8B">handed to trackers and door</text>
<text x="20" y="560" class="small" style="font-weight:bold">Cancelling burn: a steering pulse split in two</text>
<line x1="60" y1="640" x2="460" y2="640" stroke="#333" stroke-width="1.2" marker-end="url(#arrowDark)"/>
<text x="466" y="645" class="tiny">time</text>
<text x="15" y="585" class="tiny">swing</text>
<polyline points="60.0,640.0 64.0,634.6 68.0,629.3 72.0,624.1 76.0,619.2 80.0,614.5 84.0,610.3 88.0,606.4 92.0,603.1 96.0,600.3 100.0,598.0 104.0,596.4 108.0,595.4 112.0,595.0 116.0,595.3 120.0,596.2 124.0,597.8 128.0,600.0 132.0,602.7 136.0,606.0 140.0,609.8 144.0,614.0 148.0,618.6 152.0,623.5 156.0,628.6 160.0,633.9 164.0,639.3 168.0,644.7 172.0,650.1 176.0,655.2 180.0,660.2 184.0,664.9 188.0,669.2 192.0,673.1 196.0,676.5 200.0,679.4 204.0,681.7 208.0,683.5 212.0,684.5 216.0,685.0 220.0,684.8 224.0,683.9 228.0,682.5 232.0,680.4 236.0,677.7 240.0,674.4 244.0,670.7 248.0,666.6 252.0,662.0 256.0,657.1 260.0,652.0 264.0,646.7 268.0,641.4 272.0,635.9 276.0,630.6 280.0,625.4 284.0,620.4 288.0,615.7 292.0,611.3 296.0,607.4 300.0,603.9 304.0,600.9 308.0,598.5 312.0,596.7 316.0,595.6 320.0,595.0 324.0,595.2 328.0,595.9 332.0,597.3 336.0,599.4 340.0,602.0 344.0,605.1 348.0,608.8 352.0,612.9 356.0,617.4 360.0,622.2 364.0,627.3 368.0,632.6 372.0,638.0 376.0,643.4 380.0,648.7 384.0,654.0 388.0,659.0 392.0,663.8 396.0,668.2 400.0,672.2 404.0,675.7 408.0,678.7 412.0,681.2 416.0,683.1 420.0,684.3 424.0,684.9 428.0,684.9 432.0,684.2 436.0,682.9 440.0,680.9" fill="none" stroke="#999" stroke-width="1.4" stroke-dasharray="5 4"/>
<polyline points="60.0,640.0 62.0,637.3 64.0,634.6 66.0,631.9 68.0,629.3 70.0,626.7 72.0,624.1 74.0,621.6 76.0,619.2 78.0,616.8 80.0,614.5 82.0,612.4 84.0,610.3 86.0,608.3 88.0,606.4 90.0,604.7 92.0,603.1 94.0,601.6 96.0,600.3 98.0,599.1 100.0,598.0 102.0,597.1 104.0,596.4 106.0,595.8 108.0,595.4 110.0,595.1 112.0,595.0 114.0,595.1 116.0,595.3 118.0,595.7 120.0,596.2 122.0,596.9 124.0,597.8 126.0,598.8 128.0,600.0 130.0,601.3 132.0,602.7 134.0,604.3 136.0,606.0 138.0,607.8 140.0,609.8 142.0,611.8 144.0,614.0 146.0,616.2 148.0,618.6 150.0,621.0 152.0,623.5 154.0,626.0 156.0,628.6 158.0,631.3 160.0,633.9 162.0,636.6 164.0,639.3 440,640" fill="none" stroke="#1F5F8B" stroke-width="2.4"/>
<line x1="60.0" y1="670" x2="60.0" y2="648" stroke="#C62828" stroke-width="3" marker-end="url(#arrowDark)"/>
<text x="64.0" y="688" class="tiny" style="fill:#C62828">pulse 1</text>
<line x1="164.5" y1="670" x2="164.5" y2="648" stroke="#C62828" stroke-width="3" marker-end="url(#arrowDark)"/>
<text x="168.5" y="688" class="tiny" style="fill:#C62828">pulse 2, half a swing later</text>
<text x="290" y="582" class="tiny" style="fill:#555">dashed: one pulse only</text>
<text x="560" y="330" class="title">(b) Ring: the centre stays put</text>
<circle cx="770" cy="520" r="120" fill="none" stroke="#999" stroke-dasharray="5 4"/>
<polyline points="909.2,520.0 908.8,528.7 907.5,537.4 905.4,545.8 902.5,554.0 898.9,561.9 894.6,569.3 889.7,576.3 884.2,582.8 878.2,588.7 871.9,594.0 865.2,598.8 858.4,603.0 851.3,606.6 844.2,609.7 837.0,612.3 829.9,614.4 822.9,616.1 815.9,617.5 809.0,618.6 802.3,619.4 795.7,619.9 789.1,620.3 782.7,620.6 776.3,620.8 770.0,620.8 763.7,620.8 757.3,620.6 750.9,620.3 744.3,619.9 737.7,619.4 731.0,618.6 724.1,617.5 717.1,616.1 710.1,614.4 703.0,612.3 695.8,609.7 688.7,606.6 681.6,603.0 674.8,598.8 668.1,594.0 661.8,588.7 655.8,582.8 650.3,576.3 645.4,569.3 641.1,561.9 637.5,554.0 634.6,545.8 632.5,537.4 631.2,528.7 630.8,520.0 631.2,511.3 632.5,502.6 634.6,494.2 637.5,486.0 641.1,478.1 645.4,470.7 650.3,463.7 655.8,457.2 661.8,451.3 668.1,446.0 674.8,441.2 681.6,437.0 688.7,433.4 695.8,430.3 703.0,427.7 710.1,425.6 717.1,423.9 724.1,422.5 731.0,421.4 737.7,420.6 744.3,420.1 750.9,419.7 757.3,419.4 763.7,419.2 770.0,419.2 776.3,419.2 782.7,419.4 789.1,419.7 795.7,420.1 802.3,420.6 809.0,421.4 815.9,422.5 822.9,423.9 829.9,425.6 837.0,427.7 844.2,430.3 851.3,433.4 858.4,437.0 865.2,441.2 871.9,446.0 878.2,451.3 884.2,457.2 889.7,463.7 894.6,470.7 898.9,478.1 902.5,486.0 905.4,494.2 907.5,502.6 908.8,511.3 909.2,520.0" fill="none" stroke="#1F5F8B" stroke-width="1.6"/>
<circle cx="904.9" cy="547.4" r="13" fill="#E3F0FA" stroke="#1F5F8B" stroke-width="1.4"/>
<circle cx="861.7" cy="601.0" r="13" fill="#E3F0FA" stroke="#1F5F8B" stroke-width="1.4"/>
<circle cx="803.3" cy="619.2" r="13" fill="#E3F0FA" stroke="#1F5F8B" stroke-width="1.4"/>
<circle cx="749.7" cy="620.3" r="13" fill="#E3F0FA" stroke="#1F5F8B" stroke-width="1.4"/>
<circle cx="692.1" cy="608.2" r="13" fill="#E3F0FA" stroke="#1F5F8B" stroke-width="1.4"/>
<circle cx="641.7" cy="563.0" r="13" fill="#E3F0FA" stroke="#1F5F8B" stroke-width="1.4"/>
<circle cx="635.1" cy="492.6" r="13" fill="#E3F0FA" stroke="#1F5F8B" stroke-width="1.4"/>
<circle cx="678.3" cy="439.0" r="13" fill="#E3F0FA" stroke="#1F5F8B" stroke-width="1.4"/>
<circle cx="736.7" cy="420.8" r="13" fill="#E3F0FA" stroke="#1F5F8B" stroke-width="1.4"/>
<circle cx="790.3" cy="419.7" r="13" fill="#E3F0FA" stroke="#1F5F8B" stroke-width="1.4"/>
<circle cx="847.9" cy="431.8" r="13" fill="#E3F0FA" stroke="#1F5F8B" stroke-width="1.4"/>
<circle cx="898.3" cy="477.0" r="13" fill="#E3F0FA" stroke="#1F5F8B" stroke-width="1.4"/>
<path d="M 738.7,615.3 A 13 13 0 0 1 760.7,615.3 Z" fill="#ffffff" stroke="#1F5F8B" stroke-width="0.8"/>
<line x1="763.7" y1="630.3" x2="809.7" y2="670.3" class="leader"/>
<text x="769.7" y="686.3" class="tiny">ullage: the water can slosh</text>
<path d="M 761,520 L 779,520 M 770,511 L 770,529" stroke="#C62828" stroke-width="2.2"/>
<text x="784" y="512" class="tiny" style="fill:#C62828">centre of mass</text>
<text x="784" y="528" class="tiny" style="fill:#C62828">= aim point</text>
<text x="560" y="365" class="tiny" style="fill:#555">dashed: nominal footprint; solid: swung footprint</text>
</svg>